<?xml version="1.0" encoding="UTF-8" standalone="no"?>
<!-- Created with Inkscape (http://www.inkscape.org/) -->

<svg
   xmlns:osb="http://www.openswatchbook.org/uri/2009/osb"
   xmlns:dc="http://purl.org/dc/elements/1.1/"
   xmlns:cc="http://creativecommons.org/ns#"
   xmlns:rdf="http://www.w3.org/1999/02/22-rdf-syntax-ns#"
   xmlns:svg="http://www.w3.org/2000/svg"
   xmlns="http://www.w3.org/2000/svg"
   xmlns:xlink="http://www.w3.org/1999/xlink"
   xmlns:sodipodi="http://sodipodi.sourceforge.net/DTD/sodipodi-0.dtd"
   xmlns:inkscape="http://www.inkscape.org/namespaces/inkscape"
   width="48"
   height="48"
   id="svg5453"
   version="1.1"
   inkscape:version="0.91 r13725"
   sodipodi:docname="2048.svg">
  <defs
     id="defs5455">
    <linearGradient
       inkscape:collect="always"
       id="linearGradient5061">
      <stop
         style="stop-color:#f15400;stop-opacity:1"
         offset="0"
         id="stop5063" />
      <stop
         style="stop-color:#fa8c00;stop-opacity:1"
         offset="1"
         id="stop5065" />
    </linearGradient>
    <linearGradient
       id="linearGradient7106"
       inkscape:collect="always">
      <stop
         id="stop7108"
         offset="0"
         style="stop-color:#fe9501;stop-opacity:1" />
      <stop
         id="stop7110"
         offset="1"
         style="stop-color:#feb600;stop-opacity:1" />
    </linearGradient>
    <linearGradient
       inkscape:collect="always"
       xlink:href="#linearGradient7106"
       id="linearGradient4466"
       x1="23.802246"
       y1="265.83694"
       x2="23.892494"
       y2="146.96394"
       gradientUnits="userSpaceOnUse" />
    <linearGradient
       inkscape:collect="always"
       xlink:href="#linearGradient5061"
       id="linearGradient5059"
       x1="22.547663"
       y1="266.99716"
       x2="21.170237"
       y2="148.12303"
       gradientUnits="userSpaceOnUse" />
    <linearGradient
       gradientTransform="matrix(1.0014519,3.7631821e-5,3.7631794e-5,0.95188387,0.29246943,11.945264)"
       inkscape:collect="always"
       xlink:href="#linearGradient8467-5"
       id="linearGradient4991"
       gradientUnits="userSpaceOnUse"
       x1="5.2337747"
       y1="206.23018"
       x2="3.4191015"
       y2="147.64192" />
    <linearGradient
       osb:paint="gradient"
       id="linearGradient4207">
      <stop
         id="stop3371"
         offset="0"
         style="stop-color:#3498db;stop-opacity:1;" />
      <stop
         id="stop3373"
         offset="1"
         style="stop-color:#3498db;stop-opacity:0;" />
    </linearGradient>
    <linearGradient
       id="linearGradient4422">
      <stop
         style="stop-color:#ff9300;stop-opacity:1"
         offset="0"
         id="stop4424" />
      <stop
         style="stop-color:#ffd702;stop-opacity:1"
         offset="1"
         id="stop4426" />
    </linearGradient>
    <linearGradient
       inkscape:collect="always"
       xlink:href="#linearGradient4422"
       id="linearGradient4451"
       x1="27.254869"
       y1="266.78763"
       x2="27.538433"
       y2="155.37074"
       gradientUnits="userSpaceOnUse" />
    <linearGradient
       id="linearGradient8467-5">
      <stop
         offset="0"
         style="stop-color:#d3d3d3;stop-opacity:1"
         id="stop8469-7" />
      <stop
         offset="1"
         style="stop-color:#fcf9f9;stop-opacity:1"
         id="stop8471-0" />
    </linearGradient>
    <linearGradient
       inkscape:collect="always"
       xlink:href="#linearGradient5061"
       id="linearGradient4307"
       gradientUnits="userSpaceOnUse"
       x1="-0.48534036"
       y1="266.76657"
       x2="-3.9763975"
       y2="208.51077" />
    <linearGradient
       inkscape:collect="always"
       xlink:href="#linearGradient8467-5"
       id="linearGradient4309"
       gradientUnits="userSpaceOnUse"
       x1="27.98629"
       y1="263.93311"
       x2="27.496586"
       y2="206.29182" />
    <linearGradient
       inkscape:collect="always"
       xlink:href="#linearGradient5061"
       id="linearGradient4311"
       gradientUnits="userSpaceOnUse"
       x1="28.345167"
       y1="236.00932"
       x2="27.538433"
       y2="155.37074" />
  </defs>
  <sodipodi:namedview
     id="base"
     pagecolor="#5a5a5a"
     bordercolor="#666666"
     borderopacity="1.0"
     inkscape:pageopacity="0"
     inkscape:pageshadow="2"
     inkscape:zoom="4.59"
     inkscape:cx="61.718142"
     inkscape:cy="25.96078"
     inkscape:document-units="px"
     inkscape:current-layer="g5622"
     showgrid="false"
     fit-margin-top="0"
     fit-margin-left="0"
     fit-margin-right="0"
     fit-margin-bottom="0"
     inkscape:window-width="1366"
     inkscape:window-height="633"
     inkscape:window-x="0"
     inkscape:window-y="33"
     inkscape:window-maximized="1"
     inkscape:showpageshadow="false"
     borderlayer="true"
     showguides="false"
     showborder="false">
    <inkscape:grid
       type="xygrid"
       id="grid4063" />
    <sodipodi:guide
       position="-89.459325,45.161139"
       orientation="0,48"
       id="guide4148" />
    <sodipodi:guide
       position="48.000012,2.6367188e-05"
       orientation="-48,0"
       id="guide4168" />
    <sodipodi:guide
       position="-105,4"
       orientation="0,-4"
       id="guide4170" />
    <sodipodi:guide
       position="4.2167969e-05,48.000026"
       orientation="48,0"
       id="guide4172" />
    <sodipodi:guide
       position="41,4"
       orientation="0,4"
       id="guide4174" />
    <sodipodi:guide
       position="4.0000422,2.6367188e-05"
       orientation="-48,0"
       id="guide4176" />
    <sodipodi:guide
       position="-15,4"
       orientation="0,-47.999969"
       id="guide4305" />
  </sodipodi:namedview>
  <metadata
     id="metadata5458">
    <rdf:RDF>
      <cc:Work
         rdf:about="">
        <dc:format>image/svg+xml</dc:format>
        <dc:type
           rdf:resource="http://purl.org/dc/dcmitype/StillImage" />
        <dc:title />
      </cc:Work>
    </rdf:RDF>
  </metadata>
  <g
     inkscape:label="Capa 1"
     inkscape:groupmode="layer"
     id="layer1"
     transform="translate(-384.57143,-499.798)">
    <g
       id="g4470"
       transform="matrix(1.3382274,-0.31961128,0.31961128,1.3382274,-356.73681,-37.003194)">
      <g
         id="g7486"
         transform="matrix(0.26208427,0.02583472,-0.02583472,0.26208427,404.04667,465.90142)">
        <g
           id="g7427"
           transform="translate(-0.07478376,0.54574089)" />
        <g
           id="g4236"
           transform="matrix(0.98797581,0.13461765,-0.13501288,0.99084384,25.550446,-23.969633)">
          <g
             id="g5130"
             transform="matrix(1.080707,0,0,1.080707,160.14549,-15.529907)">
            <g
               transform="matrix(1.0014519,3.7631829e-5,3.7631796e-5,0.95188387,0.03569035,12.795234)"
               id="g4318">
              <g
                 transform="translate(8.8153341e-4,-1.1611569)"
                 id="g4976">
                <g
                   id="g4455"
                   style="fill:url(#linearGradient4466);fill-opacity:1" />
                <g
                   style="fill:url(#linearGradient5059);fill-opacity:1"
                   id="g5048" />
              </g>
            </g>
            <g
               id="g4198"
               transform="matrix(1.0444445,0,0,1.0444445,-2.1594817,-11.708972)">
              <g
                 id="g5622">
                <path
                   style="opacity:1;fill:url(#linearGradient4991);fill-opacity:1;fill-rule:evenodd;stroke:none;stroke-width:2.76384115px;stroke-linecap:butt;stroke-linejoin:miter;stroke-opacity:1"
                   d="m -23.525211,154.66937 47.828584,0.0363 -0.0419,55.16792 -55.437374,-0.0422 0.0365,-48.05392 c 0.006,-7.63847 7.21097,-7.10853 7.61419,-7.10821 z"
                   id="path4271-0"
                   inkscape:connector-curvature="0"
                   sodipodi:nodetypes="ccccccc" />
                <g
                   style="fill-opacity:1;fill:url(#linearGradient4451)"
                   id="g4440">
                  <path
                     style="opacity:1;fill:url(#linearGradient4307);fill-opacity:1;fill-rule:evenodd;stroke:none;stroke-width:2.76384115px;stroke-linecap:butt;stroke-linejoin:miter;stroke-opacity:1"
                     d="m -23.87675,265.80577 47.759246,0.0362 0.044,-57.95657 -55.356996,-0.042 -0.03833,50.48297 c -0.0061,8.02458 7.189449,7.47907 7.59208,7.47936 z"
                     id="path4271"
                     inkscape:connector-curvature="0"
                     sodipodi:nodetypes="ccccccc"
                     transform="matrix(1.0014519,3.7631819e-5,3.7631809e-5,0.95188386,0.03653067,11.689948)" />
                  <path
                     style="opacity:1;fill:url(#linearGradient4311);fill-opacity:1.0;fill-rule:evenodd;stroke:none;stroke-width:2.76384115px;stroke-linecap:butt;stroke-linejoin:miter;stroke-opacity:1"
                     d="m 71.568966,150.27986 -47.759241,-0.0362 -0.044,57.95657 55.356991,0.042 0.03835,-50.48297 c 0.0062,-8.02458 -7.189452,-7.47907 -7.592072,-7.47936 z"
                     id="path4271-0-9"
                     inkscape:connector-curvature="0"
                     sodipodi:nodetypes="ccccccc"
                     transform="matrix(1.0014519,3.7631819e-5,3.7631809e-5,0.95188386,0.03653067,11.689948)" />
                  <path
                     sodipodi:nodetypes="ccccccc"
                     inkscape:connector-curvature="0"
                     id="path4271-4"
                     d="m 71.368015,265.8766 -47.75924,-0.0363 0.044,-57.95657 55.35699,0.0421 -0.0383,50.48297 c -0.006,8.02458 -7.2008,7.46814 -7.60343,7.46782 z"
                     style="opacity:1;fill:url(#linearGradient4309);fill-opacity:1;fill-rule:evenodd;stroke:none;stroke-width:2.76384115px;stroke-linecap:butt;stroke-linejoin:miter;stroke-opacity:1"
                     transform="matrix(1.0014519,3.7631819e-5,3.7631809e-5,0.95188386,0.03653067,11.689948)" />
                </g>
                <g
                   id="text5594"
                   style="font-style:normal;font-weight:normal;font-size:61.21526718px;line-height:125%;font-family:sans-serif;letter-spacing:0px;word-spacing:0px;fill:#000000;fill-opacity:0.81048387;stroke:none;stroke-width:1px;stroke-linecap:butt;stroke-linejoin:miter;stroke-opacity:1"
                   transform="matrix(0.68670879,5.2134611e-4,-5.1983668e-4,0.68472069,46.151769,65.234352)">
                  <path
                     inkscape:connector-curvature="0"
                     id="path5620"
                     style="font-style:normal;font-variant:normal;font-weight:normal;font-stretch:normal;font-family:'Product Sans';-inkscape-font-specification:'Product Sans';fill:#000000;fill-opacity:0.81048387"
                     d="m -58.92517,192.33365 -26.689856,0 0,-5.63181 q 11.998192,-12.0594 15.365032,-15.73232 2.999548,-3.36684 4.040208,-5.08087 1.040659,-1.77524 1.040659,-4.34628 0,-2.63226 -2.081319,-4.65236 -2.081319,-2.0201 -5.570589,-2.0201 -3.183194,0 -5.142083,1.89767 -1.958888,1.83646 -2.509826,3.97899 l -5.142082,-2.08132 q 1.040659,-3.30562 4.346284,-6.24396 3.305624,-2.93833 8.570137,-2.93833 5.815451,0 9.549582,3.55049 3.734131,3.55048 3.734131,8.50892 0,6.12153 -6.672464,13.10007 l -12.243053,12.30427 19.405239,0 0,5.38694 z" />
                </g>
                <g
                   id="text5598"
                   style="font-style:normal;font-weight:normal;font-size:61.21526718px;line-height:125%;font-family:sans-serif;letter-spacing:0px;word-spacing:0px;fill:#000000;fill-opacity:0.81048387;stroke:none;stroke-width:1px;stroke-linecap:butt;stroke-linejoin:miter;stroke-opacity:1"
                   transform="matrix(0.67136342,5.0969597e-4,-5.0822027e-4,0.66941974,111.04414,94.354336)">
                  <path
                     inkscape:connector-curvature="0"
                     id="path5617"
                     style="font-style:normal;font-variant:normal;font-weight:normal;font-stretch:normal;font-family:'Product Sans';-inkscape-font-specification:'Product Sans';fill:#ffffff;fill-opacity:0.81048387"
                     d="m -77.159319,146.99794 q -4.652361,6.30517 -12.181839,6.30517 -7.529477,0 -12.181842,-6.30517 -4.65236,-6.30517 -4.65236,-15.60989 0,-9.36594 4.65236,-15.6099 4.652365,-6.30517 12.181842,-6.30517 7.529478,0 12.181839,6.30517 4.65236,6.24396 4.65236,15.6099 0,9.30472 -4.65236,15.60989 z m -12.181839,0.91823 q 5.019652,0 8.0192,-4.71358 3.060764,-4.71357 3.060764,-11.81454 0,-7.16219 -3.060764,-11.81455 -2.999548,-4.71357 -8.0192,-4.71357 -5.080867,0 -8.080415,4.71357 -2.999547,4.65236 -2.999547,11.81455 0,7.10097 2.999547,11.81454 2.999548,4.71358 8.080415,4.71358 z" />
                </g>
                <g
                   id="text5602"
                   style="font-style:normal;font-weight:normal;font-size:61.21526718px;line-height:125%;font-family:sans-serif;letter-spacing:0px;word-spacing:0px;fill:#000000;fill-opacity:0.81048387;stroke:none;stroke-width:1px;stroke-linecap:butt;stroke-linejoin:miter;stroke-opacity:1"
                   transform="matrix(0.70277226,5.3354141e-4,-5.3199668e-4,0.70073765,-2.0004334,173.8051)">
                  <path
                     inkscape:connector-curvature="0"
                     id="path5614"
                     style="font-style:normal;font-variant:normal;font-weight:normal;font-stretch:normal;font-family:'Product Sans';-inkscape-font-specification:'Product Sans';fill:#ffffff;fill-opacity:0.81048387"
                     d="m 7.1285029,111.24677 -5.6318046,0 0,-8.815 -19.8949623,0 0,-4.285064 19.4052401,-28.771176 6.1215268,0 0,27.791731 5.3869431,0 0,5.264509 -5.3869431,0 0,8.815 z m -5.6318046,-14.079509 0,-19.52767 -0.2448611,0 -13.2837132,19.52767 13.5285743,0 z" />
                </g>
                <g
                   id="text5606"
                   style="font-style:normal;font-weight:normal;font-size:61.21526718px;line-height:125%;font-family:sans-serif;letter-spacing:0px;word-spacing:0px;fill:#000000;fill-opacity:0.81048387;stroke:none;stroke-width:1px;stroke-linecap:butt;stroke-linejoin:miter;stroke-opacity:1"
                   transform="matrix(0.67136346,5.09696e-4,-5.082203e-4,0.66941978,-28.241749,167.68571)">
                  <path
                     inkscape:connector-curvature="0"
                     id="path5611"
                     style="font-style:normal;font-variant:normal;font-weight:normal;font-stretch:normal;font-family:'Product Sans';-inkscape-font-specification:'Product Sans';fill:#000000;fill-opacity:0.81048387"
                     d="m 128.068,121.95116 q -4.10142,3.6117 -10.10051,3.6117 -5.9991,0 -10.10052,-3.6117 -4.10143,-3.6117 -4.10143,-8.93743 0,-3.48927 1.89768,-6.12152 1.89767,-2.69347 4.95843,-4.22386 l 0,-0.24486 q -2.38739,-1.53038 -3.91777,-3.856559 -1.53039,-2.387395 -1.53039,-4.958436 0,-5.080868 3.61171,-8.447707 3.6117,-3.428055 9.18229,-3.428055 5.57058,0 9.18229,3.428055 3.6117,3.366839 3.6117,8.447707 0,2.571041 -1.53039,4.958436 -1.53038,2.326179 -3.91777,3.856559 l 0,0.24486 q 3.06076,1.53039 4.95843,4.22386 1.89768,2.63225 1.89768,6.12152 0,5.32573 -4.10143,8.93743 z M 112.88662,98.260855 q 2.0201,1.775245 5.08087,1.775245 3.06076,0 5.01965,-1.775245 2.0201,-1.836458 2.0201,-4.774791 0,-2.938333 -2.0201,-4.65236 -1.95889,-1.714028 -5.01965,-1.714028 -3.06077,0 -5.08087,1.714028 -1.95889,1.714027 -1.95889,4.65236 0,2.938333 1.95889,4.774791 z m -0.91823,19.833745 q 2.44861,2.08132 5.9991,2.08132 3.55048,0 5.99909,-2.08132 2.44861,-2.08132 2.44861,-5.38694 0,-3.24441 -2.44861,-5.32573 -2.44861,-2.08132 -5.99909,-2.08132 -3.55049,0 -5.9991,2.08132 -2.44861,2.08132 -2.44861,5.32573 0,3.30562 2.44861,5.38694 z" />
                </g>
              </g>
            </g>
          </g>
        </g>
      </g>
    </g>
  </g>
</svg>
