<?xml version="1.0" encoding="UTF-8" standalone="no"?>
<svg
   xmlns:sketch="http://www.bohemiancoding.com/sketch/ns"
   xmlns:osb="http://www.openswatchbook.org/uri/2009/osb"
   xmlns:dc="http://purl.org/dc/elements/1.1/"
   xmlns:cc="http://creativecommons.org/ns#"
   xmlns:rdf="http://www.w3.org/1999/02/22-rdf-syntax-ns#"
   xmlns:svg="http://www.w3.org/2000/svg"
   xmlns="http://www.w3.org/2000/svg"
   xmlns:xlink="http://www.w3.org/1999/xlink"
   xmlns:sodipodi="http://sodipodi.sourceforge.net/DTD/sodipodi-0.dtd"
   xmlns:inkscape="http://www.inkscape.org/namespaces/inkscape"
   viewBox="0 0 48 48"
   id="svg2"
   version="1.1"
   inkscape:version="0.91 r13725"
   sodipodi:docname="wingpanel.svg">
  <metadata
     id="metadata57">
    <rdf:RDF>
      <cc:Work
         rdf:about="">
        <dc:format>image/svg+xml</dc:format>
        <dc:type
           rdf:resource="http://purl.org/dc/dcmitype/StillImage" />
        <dc:title></dc:title>
      </cc:Work>
    </rdf:RDF>
  </metadata>
  <sodipodi:namedview
     pagecolor="#ffffff"
     bordercolor="#666666"
     borderopacity="1"
     objecttolerance="10"
     gridtolerance="10"
     guidetolerance="10"
     inkscape:pageopacity="0"
     inkscape:pageshadow="2"
     inkscape:window-width="1366"
     inkscape:window-height="633"
     id="namedview55"
     showgrid="false"
     inkscape:zoom="4.9166667"
     inkscape:cx="-15.559322"
     inkscape:cy="24"
     inkscape:window-x="0"
     inkscape:window-y="33"
     inkscape:window-maximized="1"
     inkscape:current-layer="g4471" />
  <defs
     id="defs4">
    <clipPath
       id="clipPath6">
      <g
         transform="translate(0,-1004.3622)"
         id="g8">
        <path
           d="m -24 13 c 0 1.105 -0.672 2 -1.5 2 -0.828 0 -1.5 -0.895 -1.5 -2 0 -1.105 0.672 -2 1.5 -2 0.828 0 1.5 0.895 1.5 2 z"
           transform="matrix(15.333333,0,0,11.5,414.99999,878.8622)"
           fill="#1890d0"
           id="path10" />
      </g>
    </clipPath>
    <clipPath
       id="clipPath12">
      <g
         transform="translate(0,-1004.3622)"
         id="g14">
        <path
           d="m -24 13 c 0 1.105 -0.672 2 -1.5 2 -0.828 0 -1.5 -0.895 -1.5 -2 0 -1.105 0.672 -2 1.5 -2 0.828 0 1.5 0.895 1.5 2 z"
           transform="matrix(15.333333,0,0,11.5,414.99999,878.8622)"
           fill="#1890d0"
           id="path16" />
      </g>
    </clipPath>
    <linearGradient
       id="linearGradient3126"
       gradientUnits="userSpaceOnUse"
       gradientTransform="matrix(0,-1,1,0,-1.5e-6,47.999998)"
       x1="1"
       x2="47">
      <stop
         stop-color="#63bdf1"
         stop-opacity="1"
         id="stop19" />
      <stop
         offset="1"
         stop-color="#75c5f3"
         stop-opacity="1"
         id="stop21" />
    </linearGradient>
    <linearGradient
       gradientTransform="matrix(1.0523327,0,0,1.0276135,-72.567725,-8.6931515)"
       gradientUnits="userSpaceOnUse"
       y2="501.2316"
       x2="409.93887"
       y1="542.79797"
       x1="409.57144"
       id="linearGradient4222"
       xlink:href="#linearGradient4143"
       inkscape:collect="always" />
    <linearGradient
       osb:paint="gradient"
       id="linearGradient4207">
      <stop
         id="stop3371"
         offset="0"
         style="stop-color:#3498db;stop-opacity:1;" />
      <stop
         id="stop3373"
         offset="1"
         style="stop-color:#3498db;stop-opacity:0;" />
    </linearGradient>
    <linearGradient
       inkscape:collect="always"
       xlink:href="#linearGradient5733"
       id="linearGradient5769"
       x1="3.1467004"
       y1="1041.4948"
       x2="18.771702"
       y2="1041.4948"
       gradientUnits="userSpaceOnUse" />
    <linearGradient
       id="linearGradient5733"
       inkscape:collect="always">
      <stop
         id="stop5735"
         offset="0"
         style="stop-color:#e6f3ff;stop-opacity:1" />
      <stop
         id="stop5737"
         offset="1"
         style="stop-color:#dcffe7;stop-opacity:1" />
    </linearGradient>
    <linearGradient
       id="linearGradient4143"
       inkscape:collect="always">
      <stop
         id="stop4145"
         offset="0"
         style="stop-color:#197cf1;stop-opacity:1" />
      <stop
         id="stop4147"
         offset="1"
         style="stop-color:#20bcfa;stop-opacity:1" />
    </linearGradient>
    <linearGradient
       inkscape:collect="always"
       xlink:href="#linearGradient5733"
       id="linearGradient4282"
       gradientUnits="userSpaceOnUse"
       x1="3.1467004"
       y1="1041.4948"
       x2="18.771702"
       y2="1041.4948" />
    <linearGradient
       id="linearGradient4232">
      <stop
         style="stop-color:#3889e9;stop-opacity:1"
         offset="0"
         id="stop4234-0" />
      <stop
         style="stop-color:#5ea5fb;stop-opacity:1"
         offset="1"
         id="stop4236" />
    </linearGradient>
    <style
       id="current-color-scheme"
       type="text/css">.ColorScheme-Text {
        color:#31363b;
      }
      .ColorScheme-Background{
        color:#eff0f1;
      }
      .ColorScheme-ViewText {
        color:#31363b;
      }
      .ColorScheme-ViewBackground{
        color:#fcfcfc;
      }
      .ColorScheme-ViewHover {
        color:#3daee9;
      }
      .ColorScheme-ViewFocus{
        color:#3daee9;
      }
      .ColorScheme-ButtonText {
        color:#31363b;
      }
      .ColorScheme-ButtonBackground{
        color:#eff0f1;
      }
      .ColorScheme-ButtonHover {
        color:#3daee9;
      }
      .ColorScheme-ButtonFocus{
        color:#3daee9;
      }</style>
    <style
       id="current-color-scheme-8"
       type="text/css">.ColorScheme-Text {
        color:#31363b;
      }
      .ColorScheme-Background{
        color:#eff0f1;
      }
      .ColorScheme-ViewText {
        color:#31363b;
      }
      .ColorScheme-ViewBackground{
        color:#fcfcfc;
      }
      .ColorScheme-ViewHover {
        color:#3daee9;
      }
      .ColorScheme-ViewFocus{
        color:#3daee9;
      }
      .ColorScheme-ButtonText {
        color:#31363b;
      }
      .ColorScheme-ButtonBackground{
        color:#eff0f1;
      }
      .ColorScheme-ButtonHover {
        color:#3daee9;
      }
      .ColorScheme-ButtonFocus{
        color:#3daee9;
      }</style>
    <style
       id="current-color-scheme-7"
       type="text/css">.ColorScheme-Text {
        color:#31363b;
      }
      .ColorScheme-Background{
        color:#eff0f1;
      }
      .ColorScheme-ViewText {
        color:#31363b;
      }
      .ColorScheme-ViewBackground{
        color:#fcfcfc;
      }
      .ColorScheme-ViewHover {
        color:#3daee9;
      }
      .ColorScheme-ViewFocus{
        color:#3daee9;
      }
      .ColorScheme-ButtonText {
        color:#31363b;
      }
      .ColorScheme-ButtonBackground{
        color:#eff0f1;
      }
      .ColorScheme-ButtonHover {
        color:#3daee9;
      }
      .ColorScheme-ButtonFocus{
        color:#3daee9;
      }</style>
    <linearGradient
       inkscape:collect="always"
       id="linearGradient4711">
      <stop
         style="stop-color:#3585df;stop-opacity:1"
         offset="0"
         id="stop4713" />
      <stop
         style="stop-color:#a0dff0;stop-opacity:1"
         offset="1"
         id="stop4715" />
    </linearGradient>
    <linearGradient
       inkscape:collect="always"
       xlink:href="#linearGradient4711"
       id="linearGradient4717"
       x1="413.31241"
       y1="-547.80597"
       x2="413.31241"
       y2="-499.79605"
       gradientUnits="userSpaceOnUse" />
  </defs>
  <g
     transform="translate(-384.57143,-499.798)"
     id="layer1"
     inkscape:label="Capa 1">
    <flowRoot
       transform="translate(389.57143,520.79803)"
       style="font-style:normal;font-variant:normal;font-weight:normal;font-stretch:normal;font-size:10px;line-height:125%;font-family:sans-serif;-inkscape-font-specification:'sans-serif, Normal';text-align:start;letter-spacing:0px;word-spacing:0px;writing-mode:lr-tb;text-anchor:start;fill:#000000;fill-opacity:1;stroke:none;stroke-width:1px;stroke-linecap:butt;stroke-linejoin:miter;stroke-opacity:1"
       id="flowRoot4170"
       xml:space="preserve"><flowRegion
         id="flowRegion4172"><rect
           y="3"
           x="22"
           height="15"
           width="27"
           id="rect4174" /></flowRegion><flowPara
         id="flowPara4176">Plasm</flowPara></flowRoot>    <flowRoot
       transform="translate(389.57142,520.79803)"
       style="font-style:normal;font-variant:normal;font-weight:normal;font-stretch:normal;font-size:10px;line-height:125%;font-family:sans-serif;-inkscape-font-specification:'sans-serif, Normal';text-align:start;letter-spacing:0px;word-spacing:0px;writing-mode:lr-tb;text-anchor:start;fill:#000000;fill-opacity:1;stroke:none;stroke-width:1px;stroke-linecap:butt;stroke-linejoin:miter;stroke-opacity:1"
       id="flowRoot4170-3"
       xml:space="preserve"><flowRegion
         id="flowRegion4172-7"><rect
           y="3"
           x="22"
           height="15"
           width="27"
           id="rect4174-7" /></flowRegion><flowPara
         id="flowPara4176-8">Plasm</flowPara></flowRoot>    <g
       transform="matrix(1.5106785,0,0,1.5106785,-196.56322,-279.5778)"
       inkscape:label="Capa 1"
       id="layer1-7">
      <g
         id="layer1-35"
         inkscape:label="Capa 1"
         transform="translate(-0.05368208,0.07411384)">
        <g
           transform="matrix(0.65762761,0,0,0.65762761,163.45346,180.49688)"
           id="g4447">
          <g
             transform="translate(-48.123492,9.4954666)"
             id="layer1-6"
             inkscape:label="Capa 1">
            <g
               transform="translate(-51.525445,5.4558218)"
               inkscape:label="Capa 1"
               id="layer1-4">
              <g
                 id="layer1-3"
                 inkscape:label="Capa 1"
                 transform="translate(-34.965532,2.4832225)" />
            </g>
            <g
               transform="translate(51.385479,-6.0099446)"
               id="g4403">
              <rect
                 ry="1.6441816"
                 y="513.12695"
                 x="334.23404"
                 height="34.938858"
                 width="46.302639"
                 id="rect4195"
                 style="opacity:1;fill:url(#linearGradient4222);fill-opacity:1;stroke:none;stroke-width:0.2;stroke-linecap:round;stroke-linejoin:round;stroke-miterlimit:4;stroke-dasharray:none;stroke-opacity:1" />
              <g
                 transform="matrix(0.83317883,0,0,0.83317883,65.74755,84.6955)"
                 style="fill:#d5ffff;fill-opacity:1"
                 id="g4247">
                <circle
                   style="opacity:1;fill:#ffffff;fill-opacity:0.85185188;stroke:none;stroke-width:0.2;stroke-linecap:round;stroke-linejoin:round;stroke-miterlimit:4;stroke-dasharray:none;stroke-opacity:1"
                   id="path4224"
                   cx="373.36642"
                   cy="518.737"
                   r="2.25" />
                <circle
                   style="opacity:1;fill:#ffffff;fill-opacity:0.85185188;stroke:none;stroke-width:0.2;stroke-linecap:round;stroke-linejoin:round;stroke-miterlimit:4;stroke-dasharray:none;stroke-opacity:1"
                   id="path4224-4"
                   cx="367.8389"
                   cy="518.78473"
                   r="2.25" />
                <circle
                   style="opacity:1;fill:#ffffff;fill-opacity:0.85185188;stroke:none;stroke-width:0.2;stroke-linecap:round;stroke-linejoin:round;stroke-miterlimit:4;stroke-dasharray:none;stroke-opacity:1"
                   id="path4224-8"
                   cx="362.40543"
                   cy="518.83801"
                   r="2.25" />
              </g>
              <g
                 inkscape:label="Capa 1"
                 id="layer1-1"
                 transform="matrix(1.6626131,0,0,1.6626131,-258.0637,-349.8297)">
                <flowRoot
                   xml:space="preserve"
                   id="flowRoot4170-8"
                   style="font-style:normal;font-variant:normal;font-weight:normal;font-stretch:normal;font-size:10px;line-height:125%;font-family:sans-serif;-inkscape-font-specification:'sans-serif, Normal';text-align:start;letter-spacing:0px;word-spacing:0px;writing-mode:lr-tb;text-anchor:start;fill:#000000;fill-opacity:1;stroke:none"
                   transform="translate(389.57142,520.79806)"><flowRegion
                     id="flowRegion4172-7-7"><rect
                       id="rect4174-74"
                       width="27"
                       height="15"
                       x="22"
                       y="3" /></flowRegion><flowPara
                     id="flowPara4176-9">Plasm</flowPara></flowRoot>                <g
                   transform="matrix(0.79041707,0,0,0.79041707,361.73411,-292.63179)"
                   id="layer1-64"
                   inkscape:label="Capa 1"
                   style="fill:url(#linearGradient5769);fill-opacity:1">
                  <g
                     style="fill:url(#linearGradient4282);fill-opacity:1"
                     transform="matrix(0.12485916,0,0,0.12485916,3.0932607,1033.6287)"
                     sketch:type="MSLayerGroup"
                     id="cog2" />
                </g>
              </g>
            </g>
          </g>
        </g>
      </g>
    </g>
  </g>
  <g
     transform="translate(-459.65265,-505.44476)"
     id="layer1-71"
     inkscape:label="Capa 1">
    <g
       transform="matrix(1.0931221,0,0,1.0931221,33.310366,-50.486049)"
       id="g4471">
      <g
         transform="matrix(1.5444819,0,0,1.5444819,-275.38426,-295.80854)"
         id="layer1-39"
         inkscape:label="Capa 1" />
      <g
         style="opacity:0.85"
         inkscape:label="Capa 1"
         id="layer1-4-1"
         transform="matrix(0.59176984,0,0,0.59176984,92.308356,218.06192)">
        <g
           style="fill:#ffffff;fill-opacity:1;stroke:#ffffff;stroke-width:1.57802403;stroke-miterlimit:4;stroke-dasharray:none;stroke-opacity:1"
           transform="matrix(0.34853715,0,0,0.34853715,517.88619,186.62879)"
           id="g4094">
          <path
             d="m 64,940.36218 c -26.509667,0 -48,21.49034 -48,48 0,26.50972 21.490333,48.00002 48,48.00002 26.509664,0 48,-21.4903 48,-48.00002 0,-26.50966 -21.490336,-48 -48,-48 z m 0,4 c 20.15479,0 37.14462,13.55176 42.355,32.04 -4.4877,9.25637 -10.873381,17.59038 -18.650002,24.32502 -3.735795,3.2352 -7.814534,6.1193 -12.32,8.15 -4.505465,2.0307 -9.461145,3.1829 -14.394998,2.9 -3.706902,-0.2126 -7.368725,-1.2452 -10.615,-3.045 8.603218,-4.6618 16.365742,-10.87737 22.720002,-18.32002 4.170803,-4.88521 7.819942,-10.43709 9.224998,-16.705 0.702528,-3.13395 0.821581,-6.4161 0.164998,-9.56 -0.656582,-3.1439 -2.110188,-6.1399 -4.309996,-8.48 -2.149082,-2.28613 -4.97033,-3.90553 -7.995002,-4.74 -3.024672,-0.83446 -6.24345,-0.89907 -9.33,-0.335 -6.173101,1.12814 -11.684554,4.71584 -16.105,9.17 -7.79168,7.8511 -12.608581,18.92915 -11.725,29.955 0.441789,5.51292 2.289248,10.93012 5.455,15.46502 0.706642,1.0122 1.483501,1.9764 2.315,2.89 -4.611828,1.614 -9.386995,2.7629 -14.23,3.41 -4.15805,-6.7188 -6.56,-14.638 -6.56,-23.12002 0,-24.30053 19.69947,-44 44,-44 z m 0.28,8.89 c 3.093024,0.004 6.207066,0.94057 8.675002,2.805 2.223488,1.67977 3.871027,4.06951 4.804998,6.695 0.933971,2.62549 1.173658,5.47662 0.855002,8.245 -0.637319,5.53677 -3.430458,10.61442 -6.804999,15.05 -5.975053,7.85375 -13.917093,14.13972 -22.750003,18.54002 -0.904118,0.4504 -1.822565,0.8785 -2.745,1.29 -1.921973,-1.6819 -3.569314,-3.6768 -4.825,-5.90002 -2.623798,-4.64556 -3.489056,-10.16402 -2.98,-15.475 0.509056,-5.31097 2.331648,-10.42962 4.78,-15.17 2.838755,-5.49625 6.70822,-10.70239 12.125,-13.69 2.70839,-1.4938 5.771973,-2.39419 8.865,-2.39 z m 43.325,29.22 c 0.25778,1.9268 0.395,3.89265 0.395,5.89 0,24.30052 -19.699469,44.00002 -44,44.00002 -13.647425,0 -25.844438,-6.2128 -33.915,-15.965 4.98138,-1.1314 9.850072,-2.7565 14.52,-4.825 2.042194,1.5553 4.297558,2.8309 6.695,3.75 6.904163,2.6469 14.742694,2.2639 21.730003,-0.155 6.987303,-2.4189 13.183469,-6.7606 18.584999,-11.81 6.434617,-6.01522 11.859848,-13.10515 15.989998,-20.88502 z"
             inkscape:connector-curvature="0"
             id="path4096"
             style="fill:#ffffff;fill-opacity:1;stroke:#ffffff;stroke-width:1.57802403;stroke-miterlimit:4;stroke-dasharray:none;stroke-opacity:1" />
        </g>
      </g>
    </g>
  </g>
</svg>
