<?xml version="1.0" encoding="UTF-8" standalone="no"?>
<!-- Created with Inkscape (http://www.inkscape.org/) -->

<svg
   xmlns:sketch="http://www.bohemiancoding.com/sketch/ns"
   xmlns:dc="http://purl.org/dc/elements/1.1/"
   xmlns:cc="http://creativecommons.org/ns#"
   xmlns:rdf="http://www.w3.org/1999/02/22-rdf-syntax-ns#"
   xmlns:svg="http://www.w3.org/2000/svg"
   xmlns="http://www.w3.org/2000/svg"
   xmlns:sodipodi="http://sodipodi.sourceforge.net/DTD/sodipodi-0.dtd"
   xmlns:inkscape="http://www.inkscape.org/namespaces/inkscape"
   width="22"
   height="22"
   id="svg3869"
   version="1.1"
   inkscape:version="0.91 r13725"
   sodipodi:docname="bqm-diff.svg">
  <defs
     id="defs3871" />
  <sodipodi:namedview
     id="base"
     pagecolor="#ffffff"
     bordercolor="#666666"
     borderopacity="1.0"
     inkscape:pageopacity="0.0"
     inkscape:pageshadow="2"
     inkscape:zoom="11.313708"
     inkscape:cx="6.7059929"
     inkscape:cy="12.875242"
     inkscape:document-units="px"
     inkscape:current-layer="layer1"
     showgrid="true"
     fit-margin-top="0"
     fit-margin-left="0"
     fit-margin-right="0"
     fit-margin-bottom="0"
     inkscape:window-width="1366"
     inkscape:window-height="630"
     inkscape:window-x="0"
     inkscape:window-y="36"
     inkscape:window-maximized="1"
     inkscape:showpageshadow="false">
    <inkscape:grid
       type="xygrid"
       id="grid4132" />
    <sodipodi:guide
       position="4,18"
       orientation="18,0"
       id="guide4138" />
    <sodipodi:guide
       position="5,3"
       orientation="0,18"
       id="guide4140" />
    <sodipodi:guide
       position="20,2.0000174"
       orientation="-18,0"
       id="guide4142" />
    <sodipodi:guide
       position="2,21"
       orientation="0,-18"
       id="guide4144" />
    <sodipodi:guide
       position="3,19.000017"
       orientation="16,0"
       id="guide4146" />
    <sodipodi:guide
       position="2,4"
       orientation="0,16"
       id="guide4148" />
    <sodipodi:guide
       position="21,20"
       orientation="-16,0"
       id="guide4150" />
    <sodipodi:guide
       position="2,20"
       orientation="0,-16"
       id="guide4152" />
  </sodipodi:namedview>
  <metadata
     id="metadata3874">
    <rdf:RDF>
      <cc:Work
         rdf:about="">
        <dc:format>image/svg+xml</dc:format>
        <dc:type
           rdf:resource="http://purl.org/dc/dcmitype/StillImage" />
        <dc:title></dc:title>
      </cc:Work>
    </rdf:RDF>
  </metadata>
  <g
     inkscape:label="Capa 1"
     inkscape:groupmode="layer"
     id="layer1"
     transform="translate(-326,-534.3622)">
    <g
       id="g4149"
       transform="translate(-1,1)">
      <g
         transform="translate(-1.4005019e-7,-1.9776647e-6)"
         inkscape:label="Capa 1"
         id="layer1-6">
        <g
           transform="matrix(0.66666669,0,0,0.66666669,70.95237,189.83022)"
           id="layer1-3"
           inkscape:label="Capa 1">
          <g
             inkscape:label="Capa 1"
             id="layer1-8"
             transform="matrix(1.5359999,0,0,1.5359999,383.7381,-1067.9379)">
            <g
               id="cog2"
               sketch:type="MSLayerGroup"
               transform="matrix(0.12485916,0,0,0.12485916,3.0932607,1033.6287)"
               style="fill:#4d4d4d;fill-opacity:1">
              <path
                 sodipodi:nodetypes="ccccscsccscccccssccccsscscccccssccccscsccscccccssccccsccsccccssccc"
                 d="m 124.918,52.205 c -0.436,-0.571 -1.005,-0.911 -1.711,-1.019 l -14.909,-2.281 c -0.815,-2.607 -1.929,-5.268 -3.341,-7.984 0.977,-1.358 2.443,-3.272 4.398,-5.744 1.955,-2.472 3.34,-4.277 4.155,-5.418 0.435,-0.598 0.651,-1.222 0.651,-1.874 0,-0.76 -0.189,-1.357 -0.57,-1.792 -1.955,-2.771 -6.436,-7.387 -13.443,-13.851 -0.65,-0.543 -1.33,-0.814 -2.035,-0.814 -0.815,0 -1.467,0.244 -1.956,0.732 L 84.589,20.878 C 82.361,19.737 79.917,18.732 77.256,17.863 L 74.975,2.873 C 74.921,2.167 74.608,1.583 74.038,1.121 73.467,0.659 72.803,0.429 72.041,0.429 l -18.086,0 c -1.575,0 -2.553,0.76 -2.933,2.281 -0.706,2.715 -1.494,7.766 -2.363,15.153 -2.553,0.816 -5.024,1.848 -7.414,3.097 L 30.002,12.242 c -0.706,-0.543 -1.412,-0.814 -2.118,-0.814 -1.195,0 -3.761,1.941 -7.699,5.825 -3.938,3.884 -6.612,6.803 -8.025,8.758 -0.489,0.706 -0.733,1.331 -0.733,1.874 0,0.652 0.271,1.304 0.814,1.955 3.639,4.4 6.545,8.147 8.718,11.244 -1.358,2.498 -2.417,4.997 -3.177,7.495 L 2.628,50.86 C 2.031,50.969 1.515,51.322 1.08,51.92 0.645,52.517 0.428,53.142 0.428,53.793 l 0,18.087 c 0,0.707 0.217,1.344 0.652,1.914 0.435,0.571 1.005,0.912 1.711,1.02 l 14.91,2.2 c 0.76,2.661 1.873,5.349 3.34,8.064 -0.977,1.358 -2.444,3.272 -4.399,5.744 -1.955,2.472 -3.341,4.277 -4.155,5.418 -0.435,0.599 -0.652,1.222 -0.652,1.874 0,0.706 0.19,1.33 0.57,1.873 2.118,2.934 6.599,7.497 13.443,13.688 0.598,0.598 1.277,0.896 2.037,0.896 0.815,0 1.494,-0.244 2.037,-0.732 L 41.41,105.12 c 2.228,1.141 4.672,2.146 7.333,3.016 l 2.281,14.99 c 0.055,0.706 0.367,1.29 0.937,1.752 0.57,0.463 1.236,0.692 1.996,0.692 l 18.087,0 c 1.577,0 2.554,-0.76 2.935,-2.281 0.705,-2.716 1.492,-7.766 2.361,-15.153 2.553,-0.815 5.025,-1.848 7.414,-3.097 l 11.244,8.8 c 0.76,0.488 1.467,0.732 2.118,0.732 1.194,0 3.747,-1.927 7.657,-5.784 3.912,-3.856 6.6,-6.79 8.065,-8.8 0.489,-0.543 0.734,-1.167 0.734,-1.873 0,-0.706 -0.271,-1.387 -0.815,-2.037 -3.91,-4.78 -6.816,-8.527 -8.718,-11.243 1.086,-2.01 2.146,-4.481 3.178,-7.414 l 15.072,-2.28 c 0.651,-0.109 1.196,-0.463 1.63,-1.061 0.434,-0.598 0.65,-1.223 0.65,-1.874 l 0,-18.086 c 10e-4,-0.706 -0.215,-1.343 -0.651,-1.914 z"
                 id="path4463"
                 sketch:type="MSShapeGroup"
                 inkscape:connector-curvature="0"
                 style="fill:#4d4d4d;fill-opacity:1" />
            </g>
          </g>
        </g>
      </g>
      <g
         inkscape:label="Capa 1"
         id="layer1-2"
         transform="matrix(0.91666667,0,0,0.91666667,-58.813434,52.30402)">
        <path
           style="opacity:1;fill:#ffffff;fill-opacity:1;stroke:none;stroke-width:2.79999995;stroke-miterlimit:4;stroke-dasharray:none;stroke-opacity:0.55026455"
           d="m 9,8 0,6 5,-3 z"
           transform="translate(421.71429,525.79074)"
           id="rect4144"
           inkscape:connector-curvature="0"
           sodipodi:nodetypes="cccc" />
      </g>
    </g>
  </g>
</svg>
