<?xml version="1.0" encoding="UTF-8" standalone="no"?>
<!-- Created with Inkscape (http://www.inkscape.org/) -->

<svg
   xmlns:sketch="http://www.bohemiancoding.com/sketch/ns"
   xmlns:dc="http://purl.org/dc/elements/1.1/"
   xmlns:cc="http://creativecommons.org/ns#"
   xmlns:rdf="http://www.w3.org/1999/02/22-rdf-syntax-ns#"
   xmlns:svg="http://www.w3.org/2000/svg"
   xmlns="http://www.w3.org/2000/svg"
   xmlns:sodipodi="http://sodipodi.sourceforge.net/DTD/sodipodi-0.dtd"
   xmlns:inkscape="http://www.inkscape.org/namespaces/inkscape"
   width="22"
   height="22"
   id="svg3869"
   version="1.1"
   inkscape:version="0.91 r13725"
   sodipodi:docname="chronometer-reset.svg">
  <defs
     id="defs3871">
    <inkscape:perspective
       sodipodi:type="inkscape:persp3d"
       inkscape:vp_x="0 : 12 : 1"
       inkscape:vp_y="0 : 1000 : 0"
       inkscape:vp_z="24 : 12 : 1"
       inkscape:persp3d-origin="12 : 8 : 1"
       id="perspective4146" />
    <inkscape:perspective
       sodipodi:type="inkscape:persp3d"
       inkscape:vp_x="0 : 12 : 1"
       inkscape:vp_y="0 : 1000 : 0"
       inkscape:vp_z="24 : 12 : 1"
       inkscape:persp3d-origin="12 : 8 : 1"
       id="perspective4090" />
    <inkscape:perspective
       id="perspective4146-6"
       inkscape:persp3d-origin="12 : 8 : 1"
       inkscape:vp_z="24 : 12 : 1"
       inkscape:vp_y="0 : 1000 : 0"
       inkscape:vp_x="0 : 12 : 1"
       sodipodi:type="inkscape:persp3d" />
    <inkscape:perspective
       id="perspective4090-0"
       inkscape:persp3d-origin="12 : 8 : 1"
       inkscape:vp_z="24 : 12 : 1"
       inkscape:vp_y="0 : 1000 : 0"
       inkscape:vp_x="0 : 12 : 1"
       sodipodi:type="inkscape:persp3d" />
  </defs>
  <sodipodi:namedview
     id="base"
     pagecolor="#ffffff"
     bordercolor="#666666"
     borderopacity="1.0"
     inkscape:pageopacity="0.0"
     inkscape:pageshadow="2"
     inkscape:zoom="16.370174"
     inkscape:cx="3.9293921"
     inkscape:cy="11.894733"
     inkscape:document-units="px"
     inkscape:current-layer="layer1"
     showgrid="true"
     fit-margin-top="0"
     fit-margin-left="0"
     fit-margin-right="0"
     fit-margin-bottom="0"
     inkscape:window-width="1366"
     inkscape:window-height="630"
     inkscape:window-x="0"
     inkscape:window-y="36"
     inkscape:window-maximized="1"
     inkscape:showpageshadow="false"
     inkscape:object-nodes="true"
     inkscape:snap-bbox="true">
    <inkscape:grid
       type="xygrid"
       id="grid4132" />
    <sodipodi:guide
       position="4,18"
       orientation="18,0"
       id="guide4138" />
    <sodipodi:guide
       position="5,3"
       orientation="0,18"
       id="guide4140" />
    <sodipodi:guide
       position="20,2.0000174"
       orientation="-18,0"
       id="guide4142" />
    <sodipodi:guide
       position="2,21"
       orientation="0,-18"
       id="guide4144" />
    <sodipodi:guide
       position="3,19.000017"
       orientation="16,0"
       id="guide4146" />
    <sodipodi:guide
       position="2,4"
       orientation="0,16"
       id="guide4148" />
    <sodipodi:guide
       position="21,20"
       orientation="-16,0"
       id="guide4150" />
    <sodipodi:guide
       position="2,20"
       orientation="0,-16"
       id="guide4152" />
  </sodipodi:namedview>
  <metadata
     id="metadata3874">
    <rdf:RDF>
      <cc:Work
         rdf:about="">
        <dc:format>image/svg+xml</dc:format>
        <dc:type
           rdf:resource="http://purl.org/dc/dcmitype/StillImage" />
        <dc:title></dc:title>
      </cc:Work>
    </rdf:RDF>
  </metadata>
  <g
     inkscape:label="Capa 1"
     inkscape:groupmode="layer"
     id="layer1"
     transform="translate(-326,-534.3622)">
    <g
       id="g4153"
       transform="translate(-0.99999975,1.0000003)">
      <g
         style="fill:#4d4d4d;fill-opacity:1"
         transform="matrix(0.0282076,0,0,0.0282076,330,536.3622)"
         id="g3">
        <path
           style="fill:#4d4d4d;fill-opacity:1"
           inkscape:connector-curvature="0"
           id="path5"
           d="m 464.986,141.272 c 0,0 8.996,9.052 15.346,0.017 l 12.101,-17.349 c 4.225,-6.103 -1.231,-10.327 -1.796,-10.744 l -73.412,-51.292 -0.017,0 c -4.52,-3.145 -7.521,-1.236 -9.1,0.533 l -1.311,1.891 -11.181,16.009 c -0.053,0.061 -6.315,9.937 3.695,15.159 l 0,0.013 c 14.295,7.035 40.526,21.868 65.657,45.814 l 0.018,-0.051 0,0 z" />
        <path
           style="fill:#4d4d4d;fill-opacity:1"
           inkscape:connector-curvature="0"
           id="path7"
           d="M 341.453,0 225.762,0 c -8.978,0 -16.334,7.213 -16.334,16.338 l 0,13.484 c 0,9.112 7.356,16.468 16.334,16.468 l 5.725,0 0,9.521 c 0.009,13.688 8.648,14.825 12.985,14.534 0.737,-0.109 1.501,-0.226 2.308,-0.33 0.009,0 0.122,-0.026 0.122,-0.026 l -0.009,0 c 15.397,-2.108 40.9,-4.125 70.151,-0.403 l 0.017,-0.026 c 0,0 18.737,3.474 18.686,-13.758 l 0,-9.52 5.725,0 c 8.987,0 16.325,-7.348 16.325,-16.473 l 0,-13.471 C 357.796,7.221 350.44,0 341.453,0 l 0,0 z" />
        <path
           sodipodi:nodetypes="cssscc"
           style="fill:#4d4d4d;fill-opacity:1"
           inkscape:connector-curvature="0"
           id="path9"
           d="m 283.612,90.869 c -131.54,0 -238.167,106.64 -238.167,238.192 0,131.519 106.626,238.162 238.167,238.162 131.539,0 238.166,-106.644 238.166,-238.162 0,-131.552 -106.627,-238.192 -238.166,-238.192 z" />
      </g>
      <g
         style="fill:#ffffff;fill-opacity:1"
         inkscape:label="Capa 1"
         id="layer1-0"
         transform="matrix(0.33333334,0,0,0.33333334,204.57619,368.59629)">
        <g
           id="undo5"
           sketch:type="MSLayerGroup"
           transform="matrix(0.1917806,0,0,0.1917806,388.48954,519.71563)"
           style="fill:#ffffff;fill-opacity:1">
          <path
             d="M 120.6,38.723 C 117.288,31.01 112.834,24.356 107.24,18.762 101.645,13.168 94.992,8.715 87.278,5.401 79.565,2.087 71.473,0.431 63,0.431 55.016,0.431 47.29,1.937 39.821,4.952 32.353,7.967 25.713,12.217 19.901,17.703 L 9.308,7.192 C 7.678,5.508 5.805,5.128 3.686,6.051 1.513,6.975 0.427,8.578 0.427,10.859 l 0,36.5 c 0,1.412 0.516,2.634 1.548,3.666 1.033,1.032 2.255,1.548 3.667,1.548 l 36.5,0 c 2.282,0 3.884,-1.086 4.807,-3.259 0.923,-2.118 0.543,-3.992 -1.141,-5.622 L 34.646,32.449 c 3.803,-3.585 8.148,-6.341 13.036,-8.27 4.889,-1.928 9.994,-2.893 15.317,-2.893 5.649,0 11.04,1.101 16.173,3.3 5.133,2.2 9.572,5.174 13.32,8.922 3.748,3.747 6.722,8.187 8.922,13.32 2.199,5.133 3.299,10.523 3.299,16.173 0,5.65 -1.1,11.039 -3.299,16.172 -2.2,5.133 -5.174,9.573 -8.922,13.321 -3.748,3.748 -8.188,6.722 -13.32,8.921 -5.133,2.2 -10.525,3.3 -16.173,3.3 -6.464,0 -12.574,-1.412 -18.332,-4.236 -5.757,-2.824 -10.618,-6.816 -14.583,-11.977 -0.38,-0.543 -1.005,-0.87 -1.874,-0.979 -0.815,0 -1.494,0.244 -2.037,0.733 L 15.011,99.5 c -0.434,0.436 -0.665,0.991 -0.692,1.67 -0.027,0.68 0.15,1.29 0.53,1.833 5.921,7.17 13.09,12.724 21.509,16.661 8.419,3.937 17.3,5.907 26.642,5.907 8.473,0 16.566,-1.657 24.279,-4.97 7.713,-3.313 14.365,-7.768 19.961,-13.361 5.594,-5.596 10.047,-12.248 13.361,-19.961 3.313,-7.713 4.969,-15.807 4.969,-24.279 0,-8.474 -1.657,-16.564 -4.97,-24.277 l 0,0 z"
             id="path2117"
             sketch:type="MSShapeGroup"
             inkscape:connector-curvature="0"
             style="fill:#ffffff;fill-opacity:1" />
        </g>
      </g>
    </g>
  </g>
</svg>
