<?xml version="1.0" encoding="UTF-8" standalone="no"?>
<!-- Created with Inkscape (http://www.inkscape.org/) -->

<svg
   xmlns:dc="http://purl.org/dc/elements/1.1/"
   xmlns:cc="http://creativecommons.org/ns#"
   xmlns:rdf="http://www.w3.org/1999/02/22-rdf-syntax-ns#"
   xmlns:svg="http://www.w3.org/2000/svg"
   xmlns="http://www.w3.org/2000/svg"
   xmlns:sodipodi="http://sodipodi.sourceforge.net/DTD/sodipodi-0.dtd"
   xmlns:inkscape="http://www.inkscape.org/namespaces/inkscape"
   width="22"
   height="22"
   id="svg3869"
   version="1.1"
   inkscape:version="0.91 r13725"
   sodipodi:docname="filename-bpm-amarok.svg">
  <defs
     id="defs3871" />
  <sodipodi:namedview
     id="base"
     pagecolor="#ffffff"
     bordercolor="#666666"
     borderopacity="1.0"
     inkscape:pageopacity="0.0"
     inkscape:pageshadow="2"
     inkscape:zoom="15.999999"
     inkscape:cx="-2.0346922"
     inkscape:cy="11.68103"
     inkscape:document-units="px"
     inkscape:current-layer="layer1"
     showgrid="true"
     fit-margin-top="0"
     fit-margin-left="0"
     fit-margin-right="0"
     fit-margin-bottom="0"
     inkscape:window-width="1366"
     inkscape:window-height="630"
     inkscape:window-x="0"
     inkscape:window-y="36"
     inkscape:window-maximized="1"
     inkscape:showpageshadow="false"
     inkscape:snap-bbox="true"
     inkscape:object-nodes="true"
     showguides="true"
     inkscape:guide-bbox="true">
    <inkscape:grid
       type="xygrid"
       id="grid4132" />
    <sodipodi:guide
       position="2,20.000017"
       orientation="18,0"
       id="guide4138" />
    <sodipodi:guide
       position="2,2.0000174"
       orientation="0,18"
       id="guide4140" />
    <sodipodi:guide
       position="20,2.0000174"
       orientation="-18,0"
       id="guide4142" />
    <sodipodi:guide
       position="20,20.000017"
       orientation="0,-18"
       id="guide4144" />
    <sodipodi:guide
       position="3,3.0000174"
       orientation="0,16"
       id="guide4148" />
    <sodipodi:guide
       position="19,3.0000174"
       orientation="-16,0"
       id="guide4150" />
    <sodipodi:guide
       position="19,19.000017"
       orientation="0,-16"
       id="guide4152" />
    <sodipodi:guide
       position="3,15"
       orientation="1,0"
       id="guide4484" />
  </sodipodi:namedview>
  <metadata
     id="metadata3874">
    <rdf:RDF>
      <cc:Work
         rdf:about="">
        <dc:format>image/svg+xml</dc:format>
        <dc:type
           rdf:resource="http://purl.org/dc/dcmitype/StillImage" />
        <dc:title></dc:title>
      </cc:Work>
    </rdf:RDF>
  </metadata>
  <g
     inkscape:label="Capa 1"
     inkscape:groupmode="layer"
     id="layer1"
     transform="translate(-326,-534.3622)">
    <g
       id="g4149">
      <g
         inkscape:label="Capa 1"
         id="layer1-0"
         transform="translate(-52.85714,-5.71427)">
        <g
           id="g3"
           transform="matrix(0.02658695,0,0,0.02658695,363.48214,543.92022)">
          <g
             id="g5">
            <path
               d="m 992.02756,-31.735498 c -166.183,0 -300.899,134.715998 -300.899,300.898998 0,166.18301 134.716,300.90001 300.899,300.90001 166.18294,0 300.89994,-134.717 300.89994,-300.90001 0,-166.183 -134.717,-300.898998 -300.89994,-300.898998 z"
               id="path4157"
               inkscape:connector-curvature="0"
               style="fill:#4d4d4d;fill-opacity:1" />
            <g
               transform="translate(168.14951,255.48129)"
               id="g4174">
              <path
                 inkscape:connector-curvature="0"
                 id="path4155"
                 d="m 816.69913,76.774118 c -15.584,15.486 -40.771,15.408 -56.257,-0.178 -15.487,-15.584 -15.407,-40.771 0.178,-56.258 9.373,-9.312 22.212,-12.9529997 34.33,-11.0219997 l 103.928,-70.2880003 -70.943,103.483 c 1.858,12.134 -1.863,24.952 -11.236,34.263 z"
                 style="fill:#ffffff;fill-opacity:1" />
              <path
                 inkscape:connector-curvature="0"
                 id="path7"
                 d="m 1064.9909,-50.12363 c 5.211,15.168001 8.223,28.914003 10.178,40.2969979 0.465,2.8549998 0.906,5.5569993 1.322,8.0999993 0.355,2.62899531 0.605,5.2079954 0.871,7.5519954 0.252,2.3619998 0.48,4.5469994 0.695,6.5479994 0.193,1.960995 0.236,3.304995 0.346,4.742995 0.365,5.508 0.557,8.445 0.557,8.445 l -61.182,1.549 c 0,0 0.047,-2.944 0.129,-8.465 0.01,-1.319 0.076,-3.06 0.037,-4.479 -0.047,-1.376995 -0.096,-2.882995 -0.146,-4.5069946 -0.049,-1.641 -0.102,-3.406 -0.156,-5.2879998 -0.162,-2.0070001 -0.338,-4.13700009 -0.521,-6.3889954 -0.789,-9.0019992 -2.232,-19.9599942 -5.369,-32.2499962 -3.066,-12.295001 -7.66,-25.970002 -14.43199,-40.208003 -6.732,-14.253002 -15.906,-28.892998 -27.375,-43.115978 -5.822,-7.025 -12.113,-14.06299 -19.195,-20.61799 -3.43,-3.40601 -7.209,-6.48701 -10.936,-9.73401 -1.895,-1.582 -3.891,-3.054 -5.846,-4.60801 -1.945,-1.566 -3.947,-3.075 -6.033,-4.48901 -16.35,-11.79301 -35.064,-21.64401 -55.27,-28.74901 -10.092,-3.60801 -20.613,-6.25501 -31.301,-8.43701 -5.373,-0.927 -10.77,-1.919 -16.236,-2.454 -2.727,-0.337 -5.459,-0.692 -8.211,-0.817 l -4.125,-0.284 -2.064,-0.144 -1.035,-0.073 -0.518,-0.037 -0.257,-0.018 c 0.086,-0.009 -0.56,-0.006 0.128,-0.024 -5.78,-0.037 -12.081,-0.334 -17.164,-0.021 -5.285,0.049 -10.82,0.566 -16.337,1.034 -10.967,1.261 -21.901,3.02 -32.531,5.805 -21.279,5.46201 -41.564,13.94101 -59.759,24.80101 -2.316,1.294 -4.553,2.693 -6.738,4.15601 -2.194,1.447 -4.431,2.824 -6.57,4.314 -4.217,3.06601 -8.501,5.99502 -12.445,9.27202 -8.106,6.3 -15.462,13.195 -22.356,20.187 -13.614,14.15299 -24.955,29.164977 -33.685,44.109976 -8.773,14.930002 -15.19,29.615003 -19.801,43.018005 -4.685,13.400002 -7.399,25.559997 -9.177,35.6399967 -0.425,2.5279995 -0.829,4.92099481 -1.211,7.1729948 -0.275,2.2680001 -0.533,4.3940001 -0.771,6.3739999 -0.493,3.9589996 -0.866,7.3409946 -0.985,10.0919946 -0.355,5.523 -0.548,8.461 -0.548,8.461 0,0 -0.046,-2.944 -0.128,-8.467 -0.104,-2.77 -0.006,-6.174995 0.162,-10.1839946 0.08,-2.0069998 0.166,-4.1649998 0.254,-6.4659999 0.199,-2.295 0.407,-4.7369953 0.63,-7.3129948 0.967,-10.3029997 2.705,-22.8429957 6.371,-36.9039977 3.593,-14.061001 8.941,-29.688002 16.784,-45.921005 7.8,-16.245995 18.348,-32.909975 31.527,-49.051965 6.677,-7.98301 13.908,-15.94902 22.007,-23.38503 3.938,-3.84601 8.25,-7.35601 12.528,-11.01901 2.169,-1.79 4.446,-3.467 6.686,-5.217 2.23,-1.766 4.522,-3.473 6.903,-5.076 18.703,-13.33301 40.089,-24.45001 63.152,-32.41501 11.521,-4.03901 23.507,-7.01301 35.683,-9.41201 6.108,-1.035 12.209,-2.108 18.669,-2.711 6.625,-0.857 12.111,-0.998 18.088,-1.45 l 9.776,-0.132 c 3.137,-0.098 6.268,0.037 9.396,0.166 6.279,0.116 12.521,0.716 18.773,1.291 12.451,1.478 24.854,3.565 36.914,6.781 24.137,6.31901 47.092,16.07101 67.641,28.46701 2.609,1.487 5.139,3.082 7.607,4.746 2.479,1.64901 4.996,3.22901 7.41,4.92701 4.768,3.479 9.584,6.839 14.037,10.557 9.125,7.182 17.42,15.00601 25.16799,22.95603 15.324,16.068 28.043,33.109 37.838,50.045975 9.836,16.919001 17.012,33.553004 22.147,48.725005 z"
                 style="fill:#ffffff;fill-opacity:1" />
            </g>
          </g>
        </g>
      </g>
    </g>
  </g>
</svg>
