<?xml version="1.0" encoding="UTF-8" standalone="no"?>
<!-- Created with Inkscape (http://www.inkscape.org/) -->

<svg
   xmlns:dc="http://purl.org/dc/elements/1.1/"
   xmlns:cc="http://creativecommons.org/ns#"
   xmlns:rdf="http://www.w3.org/1999/02/22-rdf-syntax-ns#"
   xmlns:svg="http://www.w3.org/2000/svg"
   xmlns="http://www.w3.org/2000/svg"
   xmlns:sodipodi="http://sodipodi.sourceforge.net/DTD/sodipodi-0.dtd"
   xmlns:inkscape="http://www.inkscape.org/namespaces/inkscape"
   width="22"
   height="22"
   id="svg3869"
   version="1.1"
   inkscape:version="0.91 r13725"
   sodipodi:docname="irc-operator.svg">
  <defs
     id="defs3871">
    <linearGradient
       id="linearGradient4066">
      <stop
         offset="0"
         style="stop-color:#dbc9ee;stop-opacity:1"
         id="stop4068" />
      <stop
         offset="1"
         style="stop-color:#faf7fd;stop-opacity:1"
         id="stop4070" />
    </linearGradient>
    <linearGradient
       id="linearGradient3843-5">
      <stop
         id="stop3845-0"
         style="stop-color:#5a2c8b;stop-opacity:1"
         offset="0" />
      <stop
         id="stop3847-4"
         style="stop-color:#9d59cf;stop-opacity:1"
         offset="1" />
    </linearGradient>
  </defs>
  <sodipodi:namedview
     id="base"
     pagecolor="#ffffff"
     bordercolor="#666666"
     borderopacity="1.0"
     inkscape:pageopacity="0.0"
     inkscape:pageshadow="2"
     inkscape:zoom="11.313708"
     inkscape:cx="-22.479413"
     inkscape:cy="14.394053"
     inkscape:document-units="px"
     inkscape:current-layer="layer1"
     showgrid="true"
     fit-margin-top="0"
     fit-margin-left="0"
     fit-margin-right="0"
     fit-margin-bottom="0"
     inkscape:window-width="1366"
     inkscape:window-height="630"
     inkscape:window-x="0"
     inkscape:window-y="36"
     inkscape:window-maximized="1"
     inkscape:showpageshadow="false"
     inkscape:snap-bbox="true"
     inkscape:object-nodes="true">
    <inkscape:grid
       type="xygrid"
       id="grid4132" />
    <sodipodi:guide
       position="4,18"
       orientation="18,0"
       id="guide4138" />
    <sodipodi:guide
       position="5,3"
       orientation="0,18"
       id="guide4140" />
    <sodipodi:guide
       position="20,2.0000174"
       orientation="-18,0"
       id="guide4142" />
    <sodipodi:guide
       position="2,21"
       orientation="0,-18"
       id="guide4144" />
    <sodipodi:guide
       position="3,19.000017"
       orientation="16,0"
       id="guide4146" />
    <sodipodi:guide
       position="2,4"
       orientation="0,16"
       id="guide4148" />
    <sodipodi:guide
       position="21,20"
       orientation="-16,0"
       id="guide4150" />
    <sodipodi:guide
       position="2,20"
       orientation="0,-16"
       id="guide4152" />
  </sodipodi:namedview>
  <metadata
     id="metadata3874">
    <rdf:RDF>
      <cc:Work
         rdf:about="">
        <dc:format>image/svg+xml</dc:format>
        <dc:type
           rdf:resource="http://purl.org/dc/dcmitype/StillImage" />
        <dc:title></dc:title>
      </cc:Work>
    </rdf:RDF>
  </metadata>
  <g
     inkscape:label="Capa 1"
     inkscape:groupmode="layer"
     id="layer1"
     transform="translate(-326,-534.3622)">
    <g
       transform="matrix(1.00004,0,0,1.00004,-227.61766,-48.726823)"
       id="layer1-0"
       inkscape:label="Capa 1">
      <g
         transform="matrix(0.06404355,0,0,0.06404355,556.59508,586.06526)"
         style="fill:#4d4d4d;fill-opacity:1"
         id="g3">
        <path
           sodipodi:nodetypes="sccssscsssccssscsssccssscsssccssscssscc"
           inkscape:connector-curvature="0"
           style="fill:#4d4d4d;fill-opacity:1"
           id="path7"
           d="m 225.642,152.993 -24.273,0 0,-56.155 24.273,0 c 13.332,0 24.188,-10.854 24.188,-24.189 0,-13.342 -10.855,-24.189 -24.188,-24.189 l -24.273,0 0,-24.266 c 0,-13.335 -10.855,-24.189 -24.19,-24.189 -13.343,0 -24.188,10.854 -24.188,24.189 l 0,24.266 -56.148,0 0,-24.266 C 96.843,10.859 85.99,0.005 72.654,0.005 59.313,0.005 48.465,10.859 48.465,24.194 l 0,24.266 -24.276,0 C 10.853,48.46 0,59.308 0,72.649 0,85.984 10.853,96.838 24.189,96.838 l 24.276,0 0,56.155 -24.276,0 C 10.853,152.993 0,163.851 0,177.184 c 0,13.333 10.853,24.188 24.189,24.188 l 24.276,0 0,24.265 c 0,13.343 10.848,24.188 24.189,24.188 13.336,0 24.189,-10.845 24.189,-24.188 l 0,-24.265 56.146,0 0,24.265 c 0,13.343 10.855,24.188 24.188,24.188 13.34,0 24.19,-10.845 24.19,-24.188 l 0,-24.265 24.273,0 c 13.338,0 24.188,-10.855 24.188,-24.188 0,-13.333 -10.849,-24.191 -24.186,-24.191 z M 177.177,10.756 c -118.118,159.382 -59.059,79.690998 0,0 z" />
        <path
           sodipodi:nodetypes="ccccc"
           inkscape:connector-curvature="0"
           style="fill:#ffffff;fill-opacity:1"
           id="path5"
           d="m 86.093,163.744 77.646,0 0,-77.657 -77.646,0 z" />
      </g>
    </g>
  </g>
</svg>
