<?xml version="1.0" encoding="UTF-8" standalone="no"?>
<!-- Created with Inkscape (http://www.inkscape.org/) -->

<svg
   xmlns:sketch="http://www.bohemiancoding.com/sketch/ns"
   xmlns:dc="http://purl.org/dc/elements/1.1/"
   xmlns:cc="http://creativecommons.org/ns#"
   xmlns:rdf="http://www.w3.org/1999/02/22-rdf-syntax-ns#"
   xmlns:svg="http://www.w3.org/2000/svg"
   xmlns="http://www.w3.org/2000/svg"
   xmlns:sodipodi="http://sodipodi.sourceforge.net/DTD/sodipodi-0.dtd"
   xmlns:inkscape="http://www.inkscape.org/namespaces/inkscape"
   width="22"
   height="22"
   id="svg3869"
   version="1.1"
   inkscape:version="0.91 r13725"
   sodipodi:docname="text-speak.svg">
  <defs
     id="defs3871">
    <linearGradient
       id="linearGradient4290-48">
      <stop
         id="stop4292-0"
         offset="0"
         style="stop-color:#a5a5a5;stop-opacity:1;" />
      <stop
         id="stop4294-0"
         offset="1"
         style="stop-color:#f5f2f5;stop-opacity:1;" />
    </linearGradient>
    <inkscape:perspective
       id="perspective4146-9"
       inkscape:persp3d-origin="12 : 8 : 1"
       inkscape:vp_z="24 : 12 : 1"
       inkscape:vp_y="0 : 1000 : 0"
       inkscape:vp_x="0 : 12 : 1"
       sodipodi:type="inkscape:persp3d" />
    <inkscape:perspective
       id="perspective4146"
       inkscape:persp3d-origin="12 : 8 : 1"
       inkscape:vp_z="24 : 12 : 1"
       inkscape:vp_y="0 : 1000 : 0"
       inkscape:vp_x="0 : 12 : 1"
       sodipodi:type="inkscape:persp3d" />
    <inkscape:perspective
       sodipodi:type="inkscape:persp3d"
       inkscape:vp_x="0 : 12 : 1"
       inkscape:vp_y="0 : 1000 : 0"
       inkscape:vp_z="24 : 12 : 1"
       inkscape:persp3d-origin="12 : 8 : 1"
       id="perspective4146-9-1" />
    <inkscape:perspective
       sodipodi:type="inkscape:persp3d"
       inkscape:vp_x="0 : 12 : 1"
       inkscape:vp_y="0 : 1000 : 0"
       inkscape:vp_z="24 : 12 : 1"
       inkscape:persp3d-origin="12 : 8 : 1"
       id="perspective4146-96" />
    <clipPath
       clipPathUnits="userSpaceOnUse"
       id="clipPath16">
      <path
         d="m 0,706.465 1490.926,0 L 1490.926,0 0,0 0,706.465 Z"
         id="path18"
         inkscape:connector-curvature="0" />
    </clipPath>
    <clipPath
       clipPathUnits="userSpaceOnUse"
       id="clipPath24">
      <path
         d="m 22.1953,686.117 1447.7347,0 0,-667.1902 -1447.7347,0 0,667.1902 z"
         id="path26"
         inkscape:connector-curvature="0" />
    </clipPath>
    <inkscape:perspective
       id="perspective4146-7"
       inkscape:persp3d-origin="12 : 8 : 1"
       inkscape:vp_z="24 : 12 : 1"
       inkscape:vp_y="0 : 1000 : 0"
       inkscape:vp_x="0 : 12 : 1"
       sodipodi:type="inkscape:persp3d" />
    <inkscape:perspective
       id="perspective4090"
       inkscape:persp3d-origin="12 : 8 : 1"
       inkscape:vp_z="24 : 12 : 1"
       inkscape:vp_y="0 : 1000 : 0"
       inkscape:vp_x="0 : 12 : 1"
       sodipodi:type="inkscape:persp3d" />
    <clipPath
       id="clipPath16-7"
       clipPathUnits="userSpaceOnUse">
      <path
         id="path18-1"
         d="m 0,706.465 1490.926,0 L 1490.926,0 0,0 0,706.465 Z"
         inkscape:connector-curvature="0" />
    </clipPath>
    <clipPath
       id="clipPath24-9"
       clipPathUnits="userSpaceOnUse">
      <path
         id="path26-6"
         d="m 22.1953,686.117 1447.7347,0 0,-667.1902 -1447.7347,0 0,667.1902 z"
         inkscape:connector-curvature="0" />
    </clipPath>
    <clipPath
       id="clipPath4534"
       clipPathUnits="userSpaceOnUse">
      <rect
         style="fill:url(#linearGradient4538);fill-opacity:1;stroke:none"
         id="rect4536"
         width="31.999989"
         height="31.999971"
         x="8.0000114"
         y="8.0000038"
         ry="15.999986" />
    </clipPath>
    <clipPath
       id="clipPath4584"
       clipPathUnits="userSpaceOnUse">
      <rect
         style="fill:url(#linearGradient4588);fill-opacity:1;stroke:none"
         id="rect4586"
         width="31.999989"
         height="31.999971"
         x="392.57144"
         y="507.798"
         ry="15.999986" />
    </clipPath>
    <clipPath
       id="clipPath4550"
       clipPathUnits="userSpaceOnUse">
      <rect
         style="fill:url(#linearGradient4554);fill-opacity:1;stroke:none"
         id="rect4552"
         width="31.999989"
         height="31.999971"
         x="392.57144"
         y="507.798"
         ry="15.999986" />
    </clipPath>
    <clipPath
       id="clipPath4568"
       clipPathUnits="userSpaceOnUse">
      <rect
         style="fill:url(#linearGradient4572);fill-opacity:1;stroke:none"
         id="rect4570"
         width="31.999989"
         height="31.999971"
         x="392.57144"
         y="507.798"
         ry="15.999986" />
    </clipPath>
    <clipPath
       id="clipPath4528"
       clipPathUnits="userSpaceOnUse">
      <rect
         style="fill:url(#linearGradient4532);fill-opacity:1;stroke:none"
         id="rect4530"
         width="31.999989"
         height="31.999971"
         x="8.0000114"
         y="8.0000038"
         ry="15.999986" />
    </clipPath>
    <clipPath
       id="clipPath4578"
       clipPathUnits="userSpaceOnUse">
      <rect
         style="fill:url(#linearGradient4582);fill-opacity:1;stroke:none"
         id="rect4580"
         width="31.999989"
         height="31.999971"
         x="392.57144"
         y="507.798"
         ry="15.999986" />
    </clipPath>
    <clipPath
       id="clipPath4562"
       clipPathUnits="userSpaceOnUse">
      <rect
         style="fill:url(#linearGradient4566);fill-opacity:1;stroke:none"
         id="rect4564"
         width="31.999989"
         height="31.999971"
         x="392.57144"
         y="507.798"
         ry="15.999986" />
    </clipPath>
    <clipPath
       id="clipPath4544"
       clipPathUnits="userSpaceOnUse">
      <rect
         style="fill:url(#linearGradient4548);fill-opacity:1;stroke:none"
         id="rect4546"
         width="31.999989"
         height="31.999971"
         x="392.57144"
         y="507.798"
         ry="15.999986" />
    </clipPath>
    <clipPath
       id="clipPath4390"
       clipPathUnits="userSpaceOnUse">
      <rect
         style="fill:url(#linearGradient4532);fill-opacity:1;stroke:none"
         id="rect4392"
         width="31.999989"
         height="31.999971"
         x="8.0000114"
         y="8.0000038"
         ry="15.999986" />
    </clipPath>
    <clipPath
       id="clipPath4407"
       clipPathUnits="userSpaceOnUse">
      <rect
         style="fill:url(#linearGradient4582);fill-opacity:1;stroke:none"
         id="rect4409"
         width="31.999989"
         height="31.999971"
         x="392.57144"
         y="507.798"
         ry="15.999986" />
    </clipPath>
    <clipPath
       id="clipPath4424"
       clipPathUnits="userSpaceOnUse">
      <rect
         style="fill:url(#linearGradient4566);fill-opacity:1;stroke:none"
         id="rect4426"
         width="31.999989"
         height="31.999971"
         x="392.57144"
         y="507.798"
         ry="15.999986" />
    </clipPath>
    <clipPath
       id="clipPath4441"
       clipPathUnits="userSpaceOnUse">
      <rect
         style="fill:url(#linearGradient4548);fill-opacity:1;stroke:none"
         id="rect4443"
         width="31.999989"
         height="31.999971"
         x="392.57144"
         y="507.798"
         ry="15.999986" />
    </clipPath>
    <clipPath
       clipPathUnits="userSpaceOnUse"
       id="clipPath4528-1">
      <rect
         ry="15.999986"
         y="8.0000038"
         x="8.0000114"
         height="31.999971"
         width="31.999989"
         id="rect4530-7"
         style="fill:url(#linearGradient4532);fill-opacity:1;stroke:none" />
    </clipPath>
    <clipPath
       clipPathUnits="userSpaceOnUse"
       id="clipPath4578-8">
      <rect
         ry="15.999986"
         y="507.798"
         x="392.57144"
         height="31.999971"
         width="31.999989"
         id="rect4580-7"
         style="fill:url(#linearGradient4582);fill-opacity:1;stroke:none" />
    </clipPath>
    <clipPath
       clipPathUnits="userSpaceOnUse"
       id="clipPath4562-8">
      <rect
         ry="15.999986"
         y="507.798"
         x="392.57144"
         height="31.999971"
         width="31.999989"
         id="rect4564-8"
         style="fill:url(#linearGradient4566);fill-opacity:1;stroke:none" />
    </clipPath>
    <clipPath
       clipPathUnits="userSpaceOnUse"
       id="clipPath4544-1">
      <rect
         ry="15.999986"
         y="507.798"
         x="392.57144"
         height="31.999971"
         width="31.999989"
         id="rect4546-1"
         style="fill:url(#linearGradient4548);fill-opacity:1;stroke:none" />
    </clipPath>
    <linearGradient
       id="linearGradient5263">
      <stop
         offset="0"
         style="stop-color:#a0d5ff;stop-opacity:1"
         id="stop5265" />
      <stop
         offset="1"
         style="stop-color:#a0d5ff;stop-opacity:1"
         id="stop5267" />
    </linearGradient>
  </defs>
  <sodipodi:namedview
     id="base"
     pagecolor="#ffffff"
     bordercolor="#666666"
     borderopacity="1.0"
     inkscape:pageopacity="0.0"
     inkscape:pageshadow="2"
     inkscape:zoom="11.313708"
     inkscape:cx="-32.293035"
     inkscape:cy="10.692019"
     inkscape:document-units="px"
     inkscape:current-layer="layer1"
     showgrid="true"
     fit-margin-top="0"
     fit-margin-left="0"
     fit-margin-right="0"
     fit-margin-bottom="0"
     inkscape:window-width="1366"
     inkscape:window-height="630"
     inkscape:window-x="0"
     inkscape:window-y="36"
     inkscape:window-maximized="1"
     inkscape:showpageshadow="false"
     inkscape:snap-bbox="true"
     inkscape:object-nodes="true">
    <inkscape:grid
       type="xygrid"
       id="grid4132" />
    <sodipodi:guide
       position="4,18"
       orientation="18,0"
       id="guide4138" />
    <sodipodi:guide
       position="5,3"
       orientation="0,18"
       id="guide4140" />
    <sodipodi:guide
       position="20,2.0000174"
       orientation="-18,0"
       id="guide4142" />
    <sodipodi:guide
       position="2,21"
       orientation="0,-18"
       id="guide4144" />
    <sodipodi:guide
       position="3,19.000017"
       orientation="16,0"
       id="guide4146" />
    <sodipodi:guide
       position="2,4"
       orientation="0,16"
       id="guide4148" />
    <sodipodi:guide
       position="21,20"
       orientation="-16,0"
       id="guide4150" />
    <sodipodi:guide
       position="2,20"
       orientation="0,-16"
       id="guide4152" />
  </sodipodi:namedview>
  <metadata
     id="metadata3874">
    <rdf:RDF>
      <cc:Work
         rdf:about="">
        <dc:format>image/svg+xml</dc:format>
        <dc:type
           rdf:resource="http://purl.org/dc/dcmitype/StillImage" />
        <dc:title />
      </cc:Work>
    </rdf:RDF>
  </metadata>
  <g
     inkscape:label="Capa 1"
     inkscape:groupmode="layer"
     id="layer1"
     transform="translate(-326,-534.3622)">
    <g
       id="g4223"
       transform="translate(-1.0000005,1.0000001)">
      <g
         transform="matrix(1.0585548,0,0,1.0585548,-19.791522,-31.875015)"
         inkscape:label="Capa 1"
         id="layer1-3">
        <g
           transform="matrix(0.66666666,0,0,0.66666666,70.952386,189.8302)"
           id="layer1-7"
           inkscape:label="Capa 1">
          <g
             inkscape:label="Capa 1"
             id="layer1-5"
             transform="matrix(1.5,0,0,1.5,-104.92858,-286.2453)">
            <g
               transform="matrix(0.28650725,0,0,0.28650725,116.73905,490.74772)"
               id="layer1-3-9"
               inkscape:label="Layer 1">
              <path
                 style="fill:#4d4d4d;fill-opacity:1;stroke:none;stroke-width:0.5;stroke-miterlimit:4;stroke-dasharray:none"
                 sodipodi:nodetypes="ssssccscccs"
                 inkscape:connector-curvature="0"
                 id="path7"
                 d="m 740.85718,187.65999 c 0,-12.91189 12.52623,-23.41631 27.92234,-23.41631 15.39656,0 27.92267,10.50453 27.92267,23.41631 0,12.91179 -12.52611,23.41632 -27.92267,23.41632 -1.29451,0 -2.59354,-0.075 -3.87066,-0.22295 -5.93024,3.76729 -10.30801,5.82929 -13.02133,6.13072 -0.0944,0.0101 -0.18937,0.0155 -0.28239,0.0155 -0.87153,0 -1.67821,-0.43433 -2.15856,-1.16262 -0.53694,-0.81471 -0.57196,-1.8483 -0.0937,-2.69219 0.0222,-0.0402 2.11617,-3.86054 1.51208,-7.50979 -6.37041,-4.45802 -10.00778,-10.97288 -10.00778,-17.97502 z" />
              <g
                 style="fill:#ffffff;fill-opacity:1;stroke:none"
                 transform="translate(725.96018,165.63661)"
                 id="g5257">
                <g
                   style="fill:#ffffff;fill-opacity:1;stroke:none"
                   transform="matrix(0.86821297,0,0,0.86821297,22.89117,3.3794412)"
                   id="g5211">
                  <g
                     style="fill:#ffffff;fill-opacity:1;stroke:none"
                     id="g5213" />
                </g>
                <g
                   style="fill:#ffffff;fill-opacity:1;stroke:none"
                   id="g5221" />
                <g
                   style="fill:#ffffff;fill-opacity:1;stroke:none"
                   id="g5223" />
                <g
                   style="fill:#ffffff;fill-opacity:1;stroke:none"
                   id="g5225" />
                <g
                   style="fill:#ffffff;fill-opacity:1;stroke:none"
                   id="g5227" />
                <g
                   style="fill:#ffffff;fill-opacity:1;stroke:none"
                   id="g5229" />
                <g
                   style="fill:#ffffff;fill-opacity:1;stroke:none"
                   id="g5231" />
                <g
                   style="fill:#ffffff;fill-opacity:1;stroke:none"
                   id="g5233" />
                <g
                   style="fill:#ffffff;fill-opacity:1;stroke:none"
                   id="g5235" />
                <g
                   style="fill:#ffffff;fill-opacity:1;stroke:none"
                   id="g5237" />
                <g
                   style="fill:#ffffff;fill-opacity:1;stroke:none"
                   id="g5239" />
                <g
                   style="fill:#ffffff;fill-opacity:1;stroke:none"
                   id="g5241" />
                <g
                   style="fill:#ffffff;fill-opacity:1;stroke:none"
                   id="g5243" />
                <g
                   style="fill:#ffffff;fill-opacity:1;stroke:none"
                   id="g5245" />
                <g
                   style="fill:#ffffff;fill-opacity:1;stroke:none"
                   id="g5247" />
                <g
                   style="fill:#ffffff;fill-opacity:1;stroke:none"
                   id="g5249" />
              </g>
            </g>
          </g>
        </g>
      </g>
      <g
         style="fill:#ffffff;fill-opacity:1"
         transform="matrix(0.37500001,0,0,0.37500001,211.04968,339.42637)"
         inkscape:label="Capa 1"
         id="layer1-39">
        <g
           style="fill:#ffffff;fill-opacity:1"
           transform="matrix(1.1293076,0,0,1.1293076,-296.98011,-154.21166)"
           id="layer1-4"
           inkscape:label="Capa 1">
          <g
             style="fill:#ffffff;fill-opacity:1"
             transform="matrix(0.14300539,0,0,0.14300539,554.04072,610.29161)"
             sketch:type="MSShapeGroup"
             id="g5548">
            <path
               style="fill:#ffffff;fill-opacity:1"
               inkscape:connector-curvature="0"
               id="path5550"
               d="m 57.572,8.464 c -1.412,0 -2.634,0.517 -3.666,1.548 l -27.131,27.131 -21.346,0 c -1.413,0 -2.635,0.517 -3.667,1.548 -1.032,1.032 -1.548,2.255 -1.548,3.667 l 0,31.285 c 0,1.412 0.516,2.635 1.548,3.666 1.033,1.032 2.255,1.549 3.667,1.549 l 21.345,0 27.131,27.131 c 1.032,1.031 2.254,1.548 3.666,1.548 1.413,0 2.635,-0.517 3.667,-1.548 1.032,-1.031 1.548,-2.254 1.548,-3.666 l 0,-88.644 c 0,-1.412 -0.516,-2.635 -1.547,-3.667 C 60.206,8.981 58.985,8.464 57.572,8.464 l 0,0 z" />
            <path
               style="fill:#ffffff;fill-opacity:1"
               inkscape:connector-curvature="0"
               id="path5552"
               d="M 90.609,69.527 C 92.918,65.97 94.072,62.128 94.072,58 c 0,-4.128 -1.154,-7.988 -3.463,-11.573 -2.31,-3.585 -5.363,-6.11 -9.166,-7.577 -0.543,-0.271 -1.223,-0.407 -2.037,-0.407 -1.412,0 -2.635,0.503 -3.666,1.507 -1.031,1.005 -1.549,2.241 -1.549,3.707 0,1.141 0.326,2.105 0.979,2.893 0.652,0.788 1.439,1.467 2.363,2.037 0.922,0.57 1.846,1.195 2.77,1.874 0.924,0.679 1.711,1.643 2.363,2.892 0.65,1.25 0.977,2.798 0.977,4.645 0,1.847 -0.326,3.395 -0.977,4.645 -0.652,1.25 -1.439,2.213 -2.363,2.893 -0.924,0.679 -1.848,1.304 -2.77,1.874 -0.924,0.569 -1.711,1.249 -2.363,2.036 -0.652,0.789 -0.979,1.752 -0.979,2.893 0,1.467 0.518,2.702 1.549,3.707 1.031,1.005 2.254,1.508 3.666,1.508 0.814,0 1.494,-0.136 2.037,-0.406 3.803,-1.523 6.857,-4.063 9.166,-7.621 l 0,0 z" />
            <path
               style="fill:#ffffff;fill-opacity:1"
               inkscape:connector-curvature="0"
               id="path5554"
               d="m 108.004,81.016 c 4.617,-7.033 6.926,-14.705 6.926,-23.016 0,-8.311 -2.309,-15.982 -6.926,-23.019 -4.617,-7.033 -10.729,-12.152 -18.332,-15.357 -0.705,-0.271 -1.412,-0.407 -2.117,-0.407 -1.412,0 -2.635,0.516 -3.668,1.548 -1.031,1.032 -1.547,2.254 -1.547,3.666 0,2.119 1.059,3.721 3.178,4.808 3.041,1.575 5.105,2.77 6.191,3.584 4.02,2.934 7.156,6.613 9.41,11.04 2.254,4.427 3.381,9.139 3.381,14.136 0,4.997 -1.127,9.709 -3.381,14.136 -2.254,4.428 -5.391,8.106 -9.41,11.039 -1.086,0.815 -3.15,2.01 -6.191,3.585 -2.119,1.087 -3.178,2.689 -3.178,4.808 0,1.412 0.516,2.635 1.547,3.666 1.033,1.033 2.281,1.549 3.748,1.549 0.652,0 1.332,-0.137 2.037,-0.407 7.603,-3.206 13.715,-8.325 18.332,-15.359 l 0,0 z" />
          </g>
        </g>
      </g>
    </g>
  </g>
</svg>
